<?xml version="1.0" encoding="UTF-8" standalone="no"?>
<!-- Created with Inkscape (http://www.inkscape.org/) -->

<svg
   xmlns:dc="http://purl.org/dc/elements/1.1/"
   xmlns:cc="http://creativecommons.org/ns#"
   xmlns:rdf="http://www.w3.org/1999/02/22-rdf-syntax-ns#"
   xmlns:svg="http://www.w3.org/2000/svg"
   xmlns="http://www.w3.org/2000/svg"
   xmlns:sodipodi="http://sodipodi.sourceforge.net/DTD/sodipodi-0.dtd"
   xmlns:inkscape="http://www.inkscape.org/namespaces/inkscape"
   version="1.1"
   id="svg64"
   xml:space="preserve"
   width="793.70135"
   height="888.18933"
   viewBox="0 0 793.70135 888.18933"
   sodipodi:docname="devpi-ohne-schrift.svg"
   inkscape:version="0.92.2 5c3e80d, 2017-08-06"><metadata
     id="metadata70"><rdf:RDF><cc:Work
         rdf:about=""><dc:format>image/svg+xml</dc:format><dc:type
           rdf:resource="http://purl.org/dc/dcmitype/StillImage" /><dc:title></dc:title></cc:Work></rdf:RDF></metadata><defs
     id="defs68"><clipPath
       clipPathUnits="userSpaceOnUse"
       id="clipPath80"><path
         d="M 0,0 H 595.276 V 666.142 H 0 Z"
         id="path78"
         inkscape:connector-curvature="0" /></clipPath></defs><sodipodi:namedview
     pagecolor="#ffffff"
     bordercolor="#666666"
     borderopacity="1"
     objecttolerance="10"
     gridtolerance="10"
     guidetolerance="10"
     inkscape:pageopacity="0"
     inkscape:pageshadow="2"
     inkscape:window-width="2227"
     inkscape:window-height="1684"
     id="namedview66"
     showgrid="false"
     inkscape:zoom="1"
     inkscape:cx="381.90743"
     inkscape:cy="444.09467"
     inkscape:window-x="1440"
     inkscape:window-y="0"
     inkscape:window-maximized="0"
     inkscape:current-layer="g72" /><g
     id="g72"
     inkscape:groupmode="layer"
     inkscape:label="devpi-ohne-schrift"
     transform="matrix(1.3333333,0,0,-1.3333333,0,888.18933)"><path
       inkscape:connector-curvature="0"
       id="path84"
       style="fill:#707173;fill-opacity:1;fill-rule:nonzero;stroke:none"
       d="m 506.0453,295.4015 v 302.818 h -70.956 v -175.241 l -0.307,-127.577 z m -150.691,-144.125 22.85,-66.362 c 20.701,8.97 39.637,21.234 56.168,36.116 v -44.592 h 71.673 v 181.66 h -73.914 c -5.739,-47.241 -35.552,-86.986 -76.777,-106.822" /><path
       inkscape:connector-curvature="0"
       id="path88"
       style="fill:#c7d32c;fill-opacity:1;fill-rule:nonzero;stroke:none"
       d="m 318.6714,409.8418 22.949,66.649 c -14.665,3.298 -29.897,5.096 -45.558,5.096 -63.207,0 -119.755,-28.385 -157.694,-73.065 l 57.571,-40.312 c 25.024,26.799 60.564,43.651 100.123,43.651 7.719,0 15.238,-0.793 22.609,-2.019" /><path
       inkscape:connector-curvature="0"
       id="path92"
       style="fill:#d87d28;fill-opacity:1;fill-rule:nonzero;stroke:none"
       d="m 174.3782,337.7695 -57.492,40.256 c -17.558,-30.398 -27.656,-65.644 -27.656,-103.271 0,-39.7 11.206,-76.773 30.597,-108.268 l 55.757,42.783 c -10.599,19.459 -16.628,41.767 -16.628,65.485 0,22.74 5.624,44.135 15.422,63.015" /><path
       inkscape:connector-curvature="0"
       id="path96"
       style="fill:#c12a1c;fill-opacity:1;fill-rule:nonzero;stroke:none"
       d="m 197.7751,179.2788 -55.612,-42.672 c 37.865,-42.154 92.776,-68.685 153.899,-68.685 16.067,0 31.682,1.893 46.695,5.359 l -22.919,66.565 c -7.737,-1.355 -15.651,-2.197 -23.776,-2.197 -38.576,0 -73.373,15.986 -98.287,41.63" /><path
       inkscape:connector-curvature="0"
       id="path100"
       style="fill:#1f99d2;fill-opacity:1;fill-rule:nonzero;stroke:none"
       d="m 499.8677,295.4016 c -1.266,13.376 -3.813,26.821 -7.834,40.181 -18.216,60.525 -61.694,106.494 -115.413,129.946 l -22.009,-66.745 c 32.874,-16.24 59.254,-45.416 70.653,-83.296 2.011,-6.678 3.332,-13.387 4.273,-20.086 z" /></g></svg>