<?xml version="1.0" encoding="UTF-8" standalone="no"?>
<!-- Created with Inkscape (http://www.inkscape.org/) -->

<svg
   xmlns:dc="http://purl.org/dc/elements/1.1/"
   xmlns:cc="http://creativecommons.org/ns#"
   xmlns:rdf="http://www.w3.org/1999/02/22-rdf-syntax-ns#"
   xmlns:svg="http://www.w3.org/2000/svg"
   xmlns="http://www.w3.org/2000/svg"
   xmlns:sodipodi="http://sodipodi.sourceforge.net/DTD/sodipodi-0.dtd"
   xmlns:inkscape="http://www.inkscape.org/namespaces/inkscape"
   version="1.1"
   id="svg850"
   xml:space="preserve"
   width="793.70135"
   height="1122.52"
   viewBox="0 0 793.70135 1122.52"
   sodipodi:docname="devpi-mit-schrift.svg"
   inkscape:version="0.92.2 5c3e80d, 2017-08-06"><metadata
     id="metadata856"><rdf:RDF><cc:Work
         rdf:about=""><dc:format>image/svg+xml</dc:format><dc:type
           rdf:resource="http://purl.org/dc/dcmitype/StillImage" /><dc:title></dc:title></cc:Work></rdf:RDF></metadata><defs
     id="defs854"><clipPath
       clipPathUnits="userSpaceOnUse"
       id="clipPath866"><path
         d="M 0,0 H 595.276 V 841.89 H 0 Z"
         id="path864"
         inkscape:connector-curvature="0" /></clipPath></defs><sodipodi:namedview
     pagecolor="#ffffff"
     bordercolor="#666666"
     borderopacity="1"
     objecttolerance="10"
     gridtolerance="10"
     guidetolerance="10"
     inkscape:pageopacity="0"
     inkscape:pageshadow="2"
     inkscape:window-width="1502"
     inkscape:window-height="1332"
     id="namedview852"
     showgrid="false"
     inkscape:zoom="1"
     inkscape:cx="396.85068"
     inkscape:cy="561.26001"
     inkscape:window-x="1440"
     inkscape:window-y="0"
     inkscape:window-maximized="0"
     inkscape:current-layer="g858" /><g
     id="g858"
     inkscape:groupmode="layer"
     inkscape:label="devpi-mit-schrift"
     transform="matrix(1.3333333,0,0,-1.3333333,0,1122.52)"><path
       inkscape:connector-curvature="0"
       id="path870"
       style="fill:#707173;fill-opacity:1;fill-rule:nonzero;stroke:none"
       d="m 504.5883,476.1254 v 302.818 h -70.956 v -175.241 l -0.307,-127.577 z m -150.691,-144.125 22.85,-66.362 c 20.701,8.97 39.637,21.234 56.168,36.116 v -44.592 h 71.673 v 181.66 h -73.914 c -5.739,-47.241 -35.552,-86.986 -76.777,-106.822" /><path
       inkscape:connector-curvature="0"
       id="path874"
       style="fill:#c7d32f;fill-opacity:1;fill-rule:nonzero;stroke:none"
       d="m 317.2144,590.5654 22.949,66.649 c -14.665,3.298 -29.897,5.096 -45.558,5.096 -63.207,0 -119.755,-28.385 -157.694,-73.065 l 57.571,-40.312 c 25.024,26.799 60.564,43.651 100.123,43.651 7.719,0 15.238,-0.793 22.609,-2.019" /><path
       inkscape:connector-curvature="0"
       id="path878"
       style="fill:#d87d28;fill-opacity:1;fill-rule:nonzero;stroke:none"
       d="m 172.9211,518.4932 -57.492,40.256 c -17.558,-30.398 -27.656,-65.644 -27.656,-103.271 0,-39.7 11.206,-76.773 30.597,-108.268 l 55.757,42.783 c -10.599,19.459 -16.628,41.767 -16.628,65.485 0,22.74 5.624,44.135 15.422,63.015" /><path
       inkscape:connector-curvature="0"
       id="path882"
       style="fill:#c12a1c;fill-opacity:1;fill-rule:nonzero;stroke:none"
       d="m 196.3181,360.0024 -55.612,-42.672 c 37.865,-42.154 92.776,-68.685 153.899,-68.685 16.067,0 31.682,1.893 46.695,5.359 l -22.919,66.565 c -7.737,-1.355 -15.651,-2.197 -23.776,-2.197 -38.576,0 -73.373,15.986 -98.287,41.63" /><path
       inkscape:connector-curvature="0"
       id="path886"
       style="fill:#1f99d2;fill-opacity:1;fill-rule:nonzero;stroke:none"
       d="m 498.4111,476.1254 c -1.266,13.376 -3.813,26.821 -7.834,40.181 -18.216,60.525 -61.694,106.494 -115.413,129.946 l -22.009,-66.745 c 32.874,-16.24 59.254,-45.416 70.653,-83.296 2.011,-6.678 3.332,-13.387 4.273,-20.086 z" /><path
       d="m 504.588,181.487 h -15.82 V 92.702 h 15.82 z m -15.82,10.412 h 15.82 v 18.322 h -15.82 z m -13.292,-54.942 c 0,25.728 -20.856,46.584 -46.584,46.584 -11.871,0 -22.699,-4.447 -30.926,-11.758 v 9.704 H 381.823 V 63.969 h 15.982 v 38.303 c 8.245,-7.395 19.139,-11.898 31.087,-11.898 25.728,0 46.584,20.856 46.584,46.583 m -15.704,0 c 0,-17.054 -13.826,-30.879 -30.88,-30.879 -17.055,0 -30.88,13.825 -30.88,30.879 0,17.055 13.825,30.88 30.88,30.88 17.054,0 30.88,-13.825 30.88,-30.88 m -123.864,-44.254 35.595,88.784 h -16.87 l -23.971,-64.813 -23.326,64.813 h -17.192 l 33.738,-88.784 z m -124.067,38.5 h 74.741 v 2.502 c 0,6.187 -0.619,11.69 -1.857,16.506 -1.238,4.815 -3.147,9.242 -5.73,13.277 -4.359,6.51 -9.888,11.583 -16.587,15.215 -6.699,3.632 -13.951,5.448 -21.752,5.448 -6.566,0 -12.619,-1.225 -18.161,-3.673 -5.542,-2.449 -10.52,-6.094 -14.932,-10.936 -4.144,-4.467 -7.278,-9.417 -9.403,-14.852 -2.126,-5.435 -3.188,-11.273 -3.188,-17.514 0,-6.027 1.171,-11.933 3.511,-17.717 2.341,-5.785 5.582,-10.856 9.726,-15.214 4.412,-4.629 9.335,-8.099 14.771,-10.412 5.434,-2.313 11.433,-3.471 17.999,-3.471 9.738,0 18.281,2.609 25.626,7.829 7.345,5.219 13.062,12.753 17.152,22.6 h -17.999 c -2.583,-4.629 -6.041,-8.207 -10.372,-10.735 -4.332,-2.53 -9.134,-3.794 -14.407,-3.794 -7.373,0 -13.735,2.301 -19.089,6.901 -5.355,4.601 -8.704,10.614 -10.049,18.04 m 0.485,14.367 c 1.937,7.103 5.474,12.712 10.613,16.829 5.138,4.116 11.206,6.174 18.201,6.174 6.833,0 12.699,-2.005 17.596,-6.013 4.896,-4.009 8.34,-9.673 10.331,-16.99 z m -30.914,-9.004 c 0.002,0.177 0.014,0.352 0.014,0.529 0,0.177 -0.012,0.352 -0.014,0.529 v 72.597 h -15.981 v -38.009 c -7.563,6.594 -17.282,10.746 -27.953,11.346 -0.586,0.038 -1.174,0.064 -1.765,0.081 -0.292,0.005 -0.577,0.04 -0.871,0.04 -0.12,0 -0.238,-0.008 -0.358,-0.009 -0.043,0 -0.084,0.003 -0.127,0.003 -25.727,0 -46.584,-20.856 -46.584,-46.584 0,-25.728 20.857,-46.584 46.584,-46.584 0.12,0 0.237,0.008 0.357,0.009 0.043,0 0.085,-0.003 0.128,-0.003 0.107,0 0.21,0.014 0.317,0.015 0.899,0.015 1.791,0.057 2.677,0.122 10.456,0.667 19.978,4.75 27.434,11.19 v -9.135 h 16.142 z m -16.175,0.523 c 0,-16.953 -13.664,-30.701 -30.578,-30.865 -16.97,0.1 -30.697,13.878 -30.697,30.871 0,16.953 13.665,30.702 30.58,30.865 16.968,-0.101 30.695,-13.879 30.695,-30.871"
       style="fill:#707173;fill-opacity:1;fill-rule:nonzero;stroke:none"
       id="path888"
       inkscape:connector-curvature="0" /></g></svg>